# xmcd CD database file
#
# Track frame offsets:
#	150
#	37653
#	66613
#	100612
#	128541
#	151103
#
# Disc length: 2538 seconds
#
# Revision: 0
# Processed by: cddbd v1.5.2PL0 Copyright (c) Steve Scherf et al.
# Submitted via: CDex 1.77
#
DISCID=3d09e806
DTITLE=Bobby Hutcherson - Highway One
DYEAR=1978
DGENRE=Jazz
TTITLE0=Secrets of Love
TTITLE1=Bouquet
TTITLE2=Highway One
TTITLE3=Sweet Rita Suite Part 2: Her Soul
TTITLE4=Circle
TTITLE5=Secrets of Love (Reprise)
EXTD=YEAR: 1978
EXTT0=
EXTT1=
EXTT2=
EXTT3=
EXTT4=
EXTT5=
PLAYORDER=
